<svg width="55" height="101" viewBox="0 0 55 101" fill="none" xmlns="http://www.w3.org/2000/svg">
<path d="M4 100L11.5 92H44.5L52 100H4Z" stroke="black"/>
<path d="M9 46L3 50L10 55H45L52.5 50L45 46H9Z" stroke="#2A2A2A"/>
<path d="M9.5 11.5L1 4V48.5L9.5 43.5V11.5Z" stroke="black"/>
<path d="M9.5 58.5L1 52V99L9.5 90V58.5Z" stroke="black"/>
<path d="M46 11.5L54.5 4V48.5L46 43.5V11.5Z" stroke="black"/>
<path d="M46 58L54.5 52V98.5L46 90V58Z" stroke="black"/>
<path d="M11 9L2 1H53.5L44 9H11Z" stroke="black"/>
</svg>
